<svg width="216.000000" height="52.000000" viewBox="0 0 216 52" fill="none" xmlns="http://www.w3.org/2000/svg" xmlns:xlink="http://www.w3.org/1999/xlink">
	<desc>
			Created with Pixso.
	</desc>
	<defs/>
	<path id="OJJO" d="M26.08 52Q32.01 52 36.94 49.78Q41.09 47.91 44.54 44.47Q48.19 40.84 50.1 36.44Q52.16 31.67 52.16 26Q52.16 20.24 50.03 15.43L50.03 15.43Q48.14 11.13 44.54 7.59Q41.03 4.05 36.78 2.16Q31.91 0 26.08 0Q20.33 0 15.49 2.1Q11.15 3.99 7.54 7.59Q4.05 11.07 2.17 15.27L2.17 15.27Q0 20.15 0 26Q0 31.76 2.11 36.6L2.11 36.6L2.11 36.6Q3.99 40.9 7.54 44.47Q11.08 47.97 15.34 49.84L15.34 49.84Q20.24 52 26.08 52ZM189.91 52C197.19 52 203.35 49.49 208.38 44.47C213.46 39.41 216 33.25 216 26C216 18.74 213.46 12.6 208.38 7.59C203.35 2.53 197.19 0 189.91 0C182.63 0 176.45 2.53 171.37 7.59C166.34 12.6 163.83 18.74 163.83 26C163.83 33.25 166.34 39.41 171.37 44.47C176.45 49.49 182.63 52 189.91 52ZM64.03 42.83C67 48.94 72.39 52 80.2 52C85.23 52 89.37 50.61 92.63 47.84C95.89 45.02 97.52 41.04 97.52 35.88L97.52 0.93L89.25 0.93L89.25 35.88C89.25 38.46 88.46 40.46 86.88 41.9C85.35 43.28 83.15 43.97 80.27 43.97C75.82 43.97 72.77 42.21 71.15 38.67L64.03 42.83ZM128.66 52C120.85 52 115.46 48.94 112.49 42.83L119.61 38.67C121.23 42.21 124.28 43.97 128.73 43.97C131.61 43.97 133.81 43.28 135.34 41.9C136.92 40.46 137.71 38.46 137.71 35.88L137.71 0.93L145.98 0.93L145.98 35.88C145.98 41.04 144.35 45.02 141.09 47.84C137.83 50.61 133.69 52 128.66 52ZM26.08 43.97Q21.79 43.97 18.27 42.33Q15.59 41.08 13.36 38.89Q11.37 36.88 10.16 34.48L10.16 34.48Q8.26 30.72 8.26 26Q8.26 21.2 10.22 17.42Q11.42 15.11 13.36 13.17Q15.66 10.88 18.43 9.61L18.43 9.61Q21.89 8.02 26.08 8.02Q30.35 8.02 33.84 9.67L33.84 9.67L33.84 9.67Q36.51 10.94 38.72 13.17Q40.76 15.17 41.99 17.58L41.99 17.58Q43.9 21.3 43.9 26Q43.9 30.61 42.05 34.31Q40.81 36.81 38.72 38.89Q36.58 41.03 34 42.27L34 42.27Q30.45 43.97 26.08 43.97ZM189.91 43.97C184.88 43.97 180.64 42.28 177.19 38.89C173.79 35.45 172.09 31.15 172.09 26C172.09 20.84 173.79 16.56 177.19 13.17C180.64 9.74 184.88 8.02 189.91 8.02C194.94 8.02 199.16 9.74 202.56 13.17C206.01 16.56 207.73 20.84 207.73 26C207.73 31.15 206.01 35.45 202.56 38.89C199.16 42.28 194.94 43.97 189.91 43.97Z" fill="#FFFFFF" fill-opacity="1.000000" fill-rule="evenodd"/>
</svg>
