<svg width="24.000000" height="24.000000" viewBox="0 0 24 24" fill="none" xmlns="http://www.w3.org/2000/svg" xmlns:xlink="http://www.w3.org/1999/xlink">
	<desc>
			Created with Pixso.
	</desc>
	<defs>
		<clipPath id="clip25_61">
			<rect id="gridicons:search" width="24.000000" height="24.000000" fill="white" fill-opacity="0"/>
		</clipPath>
	</defs>
	<rect id="gridicons:search" width="24.000000" height="24.000000" fill="#FFFFFF" fill-opacity="0"/>
	<g clip-path="url(#clip25_61)">
		<path id="Vector" d="M21 19L15.84 13.84C16.79 12.39 17.18 10.64 16.91 8.93C16.65 7.22 15.76 5.66 14.41 4.57C13.07 3.47 11.37 2.91 9.64 3C7.91 3.09 6.27 3.82 5.04 5.04C3.82 6.27 3.09 7.91 3 9.64C2.91 11.37 3.47 13.07 4.57 14.41C5.66 15.76 7.22 16.65 8.93 16.91C10.64 17.18 12.39 16.79 13.84 15.84L19 21L21 19ZM4.99 10C4.99 7.24 7.24 5 9.99 5C12.75 5 15 7.24 15 10C15 12.75 12.75 15 9.99 15C7.24 15 4.99 12.75 4.99 10Z" fill="#FFFFFF" fill-opacity="1.000000" fill-rule="nonzero"/>
	</g>
</svg>
